<svg version="1" viewBox="0 0 512 512" xmlns="http://www.w3.org/2000/svg" xmlns:xlink="http://www.w3.org/1999/xlink"><defs><linearGradient id="a" x1="395.79" x2="37.881" y1="174.1" y2="532" gradientTransform="matrix(.6583 0 0 .6583 21.237 76.4)" gradientUnits="userSpaceOnUse"><stop stop-color="#b8174a" offset="0"/><stop stop-color="#fd7d00" offset="1"/></linearGradient><clipPath id="j"><rect width="384" height="384"/></clipPath></defs><g><path d="m342.33 184.96c-9.922-3.1508-22.35-6.5656-30.808-6.5656-9.5669 0-13.814-0.99845-22.028-5.1713-7.2491-3.6827-11.236-6.943-13.668-11.432-2.4314-4.4889-3.4562-10.747-3.4562-20.618v-18.09l-15.675-6.1541c-45.534-17.875-92.045-23.866-179.29-23.323-12.392 0.0772-21.694 0.1361-28.251 0.20721-6.5572 0.071-10.141 0.12448-11.977 0.2964-0.22956 0.0215-0.43305 0.0413-0.71657 0.0935-0.14176 0.026-0.29915 0.0551-0.56404 0.13958-0.2649 0.0844-0.63051 0.0557-1.4907 0.88206-0.43009 0.41322-1.057 1.2671-1.131 2.4375-0.07403 1.1704 0.4799 2.1793 0.90218 2.6648 0.84456 0.97098 1.2436 0.94829 1.5137 1.0518 0.54012 0.20706 0.71524 0.21021 0.941 0.25038 0.90321 0.16063 1.8933 0.23529 3.5166 0.35971 3.2466 0.24884 8.5215 0.56567 15.573 0.98852 83.521 5.0085 135.39 12.985 178.58 27.316l3.826 1.2705-16.177 0.62161c-74.761 2.8764-130.93 8.2114-179.83 17.11-14.801 2.6931-23.604 4.3724-28.742 5.6102-2.5688 0.61894-4.1388 1.0339-5.5901 1.7814-0.72565 0.37374-1.6891 0.75263-2.3958 2.4015-0.35332 0.82444-0.41022 1.9934-0.13525 2.8475 0.27496 0.85423 0.71985 1.3818 1.0791 1.7411 0.89864 0.89865 1.3896 0.89836 1.718 0.98853 0.32842 0.0902 0.53196 0.11493 0.71801 0.13668 0.3721 0.0434 0.65585 0.0505 0.97555 0.0533 0.63942 7e-3 1.3799-0.024 2.295-0.0762 1.8304-0.10452 4.3186-0.31085 7.3441-0.60289 6.0509-0.58407 14.22-1.5105 23.097-2.6432 46.563-5.9419 90.247-9.869 127.09-11.431 16.832-0.7137 39.842-0.57911 58.557 0.0604 2.0476 0.0701 3.2165 0.20042 5.1483 0.28201-39.105 6.3968-102.56 27.042-142.49 46.783-11.546 5.7088-22.876 12.087-31.172 17.349-4.1483 2.6309-7.5211 4.9606-9.897 6.9066-1.1878 0.97298-2.1171 1.8035-2.9065 2.8144-0.39472 0.50547-0.8 1.0336-1.0821 2.0274-0.28207 0.99382-0.09845 2.988 1.0288 4.1152 1.3647 1.3647 2.2702 1.1029 2.7151 1.1007 0.44502-2e-3 0.67313-0.0518 0.88346-0.0935 0.42069-0.0837 0.71691-0.1781 1.0605-0.29066 0.6871-0.22508 1.491-0.53142 2.4936-0.93672 2.0052-0.81061 4.7548-2.0046 8.1053-3.5109 6.701-3.0126 15.777-7.2684 25.655-12.059 57.664-25.77 106.45-44.394 175.54-47.284 0.99116 2.0862 2.2032 4.7886 3.5179 7.8997l6.0118 13.777c-57.414 36.301-39.365 119.9 23.995 130.5 8.3373 1.362 17.83 2.1757 28.749 2.6094 33.211 1.3192 45.168 4.5696 67.234 18.249 16.572 10.274 30.973 25.354 42.322 44.458 4.4963 7.5682 9.9677 19.986 14.212 31.585 2.1222 5.7994 3.9505 11.412 5.2332 16.121 1.2827 4.7088 1.978 8.6527 1.9828 10.389 7e-3 2.1422 0.26733 4.0845 0.83889 5.8031 0.28577 0.85931 0.62615 1.6729 1.2835 2.5166 0.65733 0.84367 1.9297 1.9396 3.7512 1.9396 1.2076 0 2.4376-0.65593 3.0864-1.3281 0.64876-0.67214 0.92787-1.2981 1.1367-1.8561 0.41764-1.116 0.53303-2.1076 0.61585-3.2577 0.16561-2.3002 0.0395-5.1552-0.28779-8.5429-0.6547-6.775-2.1638-15.552-4.3238-24.222-7.2794-29.219-26.417-59.428-50.325-80.014 31.097 10.32 56.278 33.628 65.517 60.784 0.47778 1.4044 1.0295 2.5836 2.0576 3.6879 0.51406 0.55214 1.1666 1.1741 2.4101 1.5022 1.2435 0.32812 3.163-0.17014 4.1023-1.1094 1.8771-1.8771 1.5274-3.4602 1.436-4.8274-0.0914-1.3673-0.38336-2.7903-0.80581-4.4044-0.84486-3.2283-2.2484-7.1546-3.9872-11.356-3.4775-8.4022-8.2106-17.753-12.68-23.824-16.622-22.579-51.794-41.152-91.404-49.292-9.4468-1.9412-30.863-5.2116-48.568-5.2116-1.2887 0-18.568-1.4522-24.823-1.9985-63.008-5.5018-58.773-95.979 5.6231-95.979 9.1544 0 14.817 0.41058 23.293 2.8504 8.4759 2.4398 19.791 7.006 39.354 15.304 8.5333 3.6197 13.346 5.879 15.794 7.5572 2.4474 1.6782 2.6652 2.2529 3.39 4.6922 0.88124 2.9657 1.0629 7.1776 3.6203 9.5654 2.5573 2.3881 13.301 6.0266 18.065 8.6718 8.123 4.7572 12.242 7.6272 19.333 16.897 7.5491-9.7423 10.74-10.026 19.687-13.007-13.343-1.4898-31.045-15.04-22.015-16.475-8.1576-7.3129-10.012-20.166-13.981-22.376-0.92185-0.78842-1.9602-1.3518-3.0332-1.7986l-16.351-1.6572c-17.571-10.393-43.076-23.111-55.935-27.234zm73.026 26.113c0-1.3497-0.39552-1.8748-0.67628-2.3742-0.28076-0.49941-0.57413-0.90173-0.90505-1.3209-0.66185-0.83839-1.4777-1.7172-2.4692-2.7123-22.417-21.291-50.202-37.67-78.946-47.774-2.1288-0.74112-3.8665-1.2708-5.4218-1.5338-0.77759-0.13153-1.4665-0.26038-2.577-0.0633-0.55526 0.0986-1.3038 0.28377-2.1108 0.98277-0.80706 0.69898-1.3886 2.0465-1.3886 3.049 0 1.3642 0.47169 1.8614 0.70506 2.19 0.23338 0.32855 0.3968 0.48255 0.53526 0.6144 0.27692 0.26369 0.4645 0.39898 0.66477 0.5439 0.40055 0.2898 0.82158 0.55708 1.3425 0.87337 1.0418 0.6326 2.4473 1.4251 4.1728 2.3641 22.383 10.718 40.059 17.891 57.909 32.574 6.105 4.4613 7.6559 9.2848 14.689 10.365z" color="#000000" color-rendering="auto" dominant-baseline="auto" fill="#fff" image-rendering="auto" opacity=".5" shape-rendering="auto" solid-color="#000000" stroke="#000" stroke-width="10" style="font-feature-settings:normal;font-variant-alternates:normal;font-variant-caps:normal;font-variant-ligatures:normal;font-variant-numeric:normal;font-variant-position:normal;isolation:auto;mix-blend-mode:normal;shape-padding:0;text-decoration-color:#000000;text-decoration-line:none;text-decoration-style:solid;text-indent:0;text-orientation:mixed;text-transform:none;white-space:normal"/><circle cx="299.85" cy="256" r="212.15" fill="url(#a)" stroke-width=".94291"/><path d="m342.33 184.96c-9.922-3.1508-22.35-6.5656-30.808-6.5656-9.5669 0-13.814-0.99845-22.028-5.1713-7.2491-3.6827-11.236-6.943-13.668-11.432-2.4314-4.4889-3.4562-10.747-3.4562-20.618v-18.09l-15.675-6.1541c-45.534-17.875-92.045-23.866-179.29-23.323-12.392 0.07721-21.694 0.13609-28.251 0.2072-6.5572 0.07104-10.141 0.12448-11.977 0.29641-0.22956 0.02155-0.43305 0.04132-0.71657 0.09353-0.14176 0.02605-0.29915 0.05513-0.56404 0.13958-0.2649 0.08443-0.63051 0.05566-1.4907 0.88206-0.43009 0.41322-1.057 1.2671-1.131 2.4375-0.07403 1.1704 0.4799 2.1793 0.90218 2.6648 0.84456 0.97098 1.2436 0.94829 1.5137 1.0518 0.54012 0.20706 0.71524 0.21021 0.941 0.25038 0.90321 0.16063 1.8933 0.23529 3.5166 0.35971 3.2466 0.24884 8.5215 0.56567 15.573 0.98852 83.521 5.0085 135.39 12.985 178.58 27.316l3.826 1.2705-16.177 0.62161c-74.761 2.8764-130.93 8.2114-179.83 17.11-14.801 2.6931-23.604 4.3724-28.742 5.6102-2.5688 0.61894-4.1388 1.0339-5.5901 1.7814-0.72565 0.37374-1.6891 0.75263-2.3958 2.4015-0.35332 0.82444-0.41022 1.9934-0.13525 2.8475 0.27496 0.85423 0.71986 1.3818 1.0791 1.7411 0.89864 0.89865 1.3896 0.89836 1.718 0.98853 0.32842 0.0902 0.53196 0.11493 0.71801 0.13668 0.3721 0.0434 0.65586 0.0505 0.97555 0.0533 0.63942 7e-3 1.3799-0.024 2.295-0.0762 1.8304-0.10452 4.3186-0.31085 7.3441-0.60289 6.0509-0.58407 14.22-1.5105 23.097-2.6432 46.563-5.9419 90.247-9.869 127.09-11.431 16.832-0.7137 39.842-0.57911 58.557 0.0604 2.0476 0.0701 3.2165 0.20042 5.1483 0.28201-39.105 6.3968-102.56 27.042-142.49 46.783-11.546 5.7088-22.876 12.087-31.172 17.349-4.1483 2.6309-7.5211 4.9606-9.897 6.9066-1.1878 0.97298-2.1171 1.8035-2.9065 2.8144-0.39472 0.50547-0.8 1.0336-1.0821 2.0274-0.28207 0.99382-0.09845 2.988 1.0288 4.1152 1.3647 1.3647 2.2702 1.1029 2.7151 1.1007 0.44502-2e-3 0.67313-0.0518 0.88346-0.0935 0.42069-0.0837 0.71691-0.1781 1.0605-0.29066 0.6871-0.22508 1.491-0.53142 2.4936-0.93672 2.0052-0.81061 4.7548-2.0046 8.1053-3.5109 6.701-3.0126 15.777-7.2684 25.655-12.059 57.664-25.77 106.45-44.394 175.54-47.284 0.99116 2.0862 2.2032 4.7886 3.5179 7.8997l6.0118 13.777c-57.414 36.301-39.365 119.9 23.995 130.5 8.3373 1.362 17.83 2.1757 28.749 2.6094 33.211 1.3192 45.168 4.5696 67.234 18.249 16.572 10.274 30.973 25.354 42.322 44.458 4.4963 7.5682 9.9677 19.986 14.212 31.585 2.1222 5.7994 3.9505 11.412 5.2332 16.121 1.2827 4.7088 1.978 8.6527 1.9828 10.389 7e-3 2.1422 0.26733 4.0845 0.83889 5.8031 0.28577 0.85931 0.62615 1.6729 1.2835 2.5166 0.65733 0.84367 1.9297 1.9396 3.7512 1.9396 1.2076 0 2.4376-0.65593 3.0864-1.3281 0.64876-0.67214 0.92787-1.2981 1.1367-1.8561 0.41764-1.116 0.53303-2.1076 0.61585-3.2577 0.16561-2.3002 0.0395-5.1552-0.28779-8.5429-0.6547-6.775-2.1638-15.552-4.3238-24.222-7.2794-29.219-26.417-59.428-50.325-80.014 31.097 10.32 56.278 33.628 65.517 60.784 0.47778 1.4044 1.0295 2.5836 2.0576 3.6879 0.51406 0.55214 1.1666 1.1741 2.4101 1.5022 1.2435 0.32812 3.163-0.17014 4.1023-1.1094 1.8771-1.8771 1.5274-3.4602 1.436-4.8274-0.0914-1.3673-0.38336-2.7903-0.80581-4.4044-0.84486-3.2283-2.2484-7.1546-3.9872-11.356-3.4775-8.4022-8.2106-17.753-12.68-23.824-16.622-22.579-51.794-41.152-91.404-49.292-9.4468-1.9412-30.863-5.2116-48.568-5.2116-1.2887 0-18.568-1.4522-24.823-1.9985-63.008-5.5018-58.773-95.979 5.6231-95.979 9.1544 0 14.817 0.41058 23.293 2.8504 8.4759 2.4398 19.791 7.006 39.354 15.304 8.5333 3.6197 13.346 5.879 15.794 7.5572 2.4474 1.6782 2.6652 2.2529 3.39 4.6922 0.88124 2.9657 1.0629 7.1776 3.6203 9.5654 2.5573 2.3881 13.301 6.0266 18.065 8.6718 8.123 4.7572 12.242 7.6272 19.333 16.897 7.5491-9.7423 10.74-10.026 19.687-13.007-13.343-1.4898-31.045-15.04-22.015-16.475-8.1576-7.3129-10.012-20.166-13.981-22.376-0.92185-0.78842-1.9602-1.3518-3.0332-1.7986l-16.351-1.6572c-17.571-10.393-43.076-23.111-55.935-27.234zm73.026 26.113c0-1.3497-0.39552-1.8748-0.67628-2.3742-0.28076-0.49941-0.57413-0.90173-0.90505-1.3209-0.66185-0.83839-1.4777-1.7172-2.4692-2.7123-22.417-21.291-50.202-37.67-78.946-47.774-2.1288-0.74112-3.8665-1.2708-5.4218-1.5338-0.77759-0.13153-1.4665-0.26038-2.577-0.0633-0.55526 0.0986-1.3038 0.28377-2.1108 0.98277-0.80706 0.69898-1.3886 2.0465-1.3886 3.049 0 1.3642 0.47169 1.8614 0.70506 2.19 0.23338 0.32855 0.3968 0.48255 0.53526 0.6144 0.27692 0.26369 0.4645 0.39898 0.66477 0.5439 0.40055 0.2898 0.82158 0.55708 1.3425 0.87337 1.0418 0.6326 2.4473 1.4251 4.1728 2.3641 22.383 10.718 40.059 17.891 57.909 32.574 6.105 4.4613 7.6559 9.2848 14.689 10.365z" color="#000000" color-rendering="auto" dominant-baseline="auto" fill="#fff" image-rendering="auto" shape-rendering="auto" solid-color="#000000" stroke-width=".73671" style="font-feature-settings:normal;font-variant-alternates:normal;font-variant-caps:normal;font-variant-ligatures:normal;font-variant-numeric:normal;font-variant-position:normal;isolation:auto;mix-blend-mode:normal;shape-padding:0;text-decoration-color:#000000;text-decoration-line:none;text-decoration-style:solid;text-indent:0;text-orientation:mixed;text-transform:none;white-space:normal"/></g></svg>
